<?xml version="1.0" encoding="utf-8"?>
<!-- Generator: Adobe Illustrator 16.0.0, SVG Export Plug-In . SVG Version: 6.00 Build 0)  -->
<!DOCTYPE svg PUBLIC "-//W3C//DTD SVG 1.1//EN" "http://www.w3.org/Graphics/SVG/1.1/DTD/svg11.dtd">
<svg version="1.1" id="Layer_1" xmlns="http://www.w3.org/2000/svg" xmlns:xlink="http://www.w3.org/1999/xlink" x="0px" y="0px"
	 width="600px" height="280.051px" viewBox="0 -10.668 600 280.051" enable-background="new 0 -10.668 600 280.051"
	 xml:space="preserve">
<path fill="#00175D" d="M595.5,97.332l-30.898-68.199c-11.141-24.223-35.344-39.762-62.004-39.801H59.301
	C26.563-10.633,0.035,15.895,0,48.637v148.195c0,17.949,14.551,32.5,32.5,32.5H81c4.734,23.309,25.219,40.051,49,40.051
	s44.266-16.742,49-40.051h242c4.734,23.309,25.219,40.051,49,40.051s44.266-16.742,49-40.051h53.203
	c12.348-0.004,23.219-8.148,26.699-20c0.723-2.539,1.09-5.16,1.098-7.797v-83.5C599.996,110.891,598.461,103.832,595.5,97.332z
	 M50,109.332c-5.523,0-10-4.477-10-10v-80c0-5.52,4.477-10,10-10h70c5.523,0,10,4.48,10,10v80c0,5.523-4.477,10-10,10H50z
	 M130,249.332c-16.566,0-30-13.43-30-30c0-16.566,13.434-30,30-30s30,13.434,30,30C159.953,235.883,146.547,249.285,130,249.332z
	 M240,99.332c0,5.523-4.477,10-10,10h-70c-5.523,0-10-4.477-10-10v-80c0-5.52,4.477-10,10-10h70c5.523,0,10,4.48,10,10V99.332z
	 M350,99.332c0,5.523-4.477,10-10,10h-70c-5.523,0-10-4.477-10-10v-80c0-5.52,4.477-10,10-10h70c5.523,0,10,4.48,10,10V99.332z
	 M380,109.332c-5.523,0-10-4.477-10-10v-80c0-5.52,4.477-10,10-10h70c5.523,0,10,4.48,10,10v80c0,5.523-4.477,10-10,10H380z
	 M470,249.332c-16.566,0-30-13.43-30-30c0-16.566,13.434-30,30-30s30,13.434,30,30C499.953,235.883,486.547,249.285,470,249.332z
	 M489.199,109.332c-5.184-0.461-9.168-4.793-9.199-10V19.246c0-5.473,4.438-9.914,9.914-9.914h12.684
	c18.824,0.051,35.914,11.012,43.805,28.102l30.898,68.199c1.613,3.555,2.5,7.398,2.602,11.297L489.199,109.332z"/>
</svg>
