<svg id="Icons" height="512" viewBox="0 0 74 74" width="512" xmlns="http://www.w3.org/2000/svg"><path d="m23.41 51.32a1 1 0 0 1 -.7-.288c-.71-.7-1.4-1.411-2.061-2.122a1 1 0 1 1 1.466-1.36c.64.689 1.309 1.378 2 2.057a1 1 0 0 1 -.7 1.713z"/><path d="m58.26 72c-5.691 0-13.9-3.568-22.515-9.789a1 1 0 1 1 1.171-1.622c8.284 5.981 16.063 9.411 21.344 9.411a6.569 6.569 0 0 0 4.823-1.637l6.489-6.5a1.423 1.423 0 0 0 .428-1.015 1.441 1.441 0 0 0 -.427-1.031l-12.111-12.117a1.469 1.469 0 0 0 -2.058 0l-4.166 4.175c-3.368 3.363-13.618-3.291-19.724-9.389s-12.755-16.36-9.391-19.724l4.18-4.171a1.469 1.469 0 0 0 0-2.058l-12.12-12.105a1.439 1.439 0 0 0 -1.027-.428 1.419 1.419 0 0 0 -1.011.423l-6.5 6.494c-4.53 4.522.455 17.742 11.844 31.434a1 1 0 0 1 -1.537 1.279c-12.452-14.972-17.169-28.687-11.729-34.13l6.5-6.491a3.4 3.4 0 0 1 2.424-1.009h.01a3.428 3.428 0 0 1 2.443 1.013l12.119 12.11a3.479 3.479 0 0 1 0 4.88l-4.184 4.175c-1.65 1.649 2.441 9.935 9.391 16.9s15.242 11.042 16.9 9.39l4.169-4.179a3.48 3.48 0 0 1 4.882 0l12.11 12.111a3.438 3.438 0 0 1 0 4.878l-6.486 6.5a8.47 8.47 0 0 1 -6.241 2.222z"/><path d="m30.759 58.07a.991.991 0 0 1 -.637-.23c-.768-.636-1.525-1.293-2.283-1.96a1 1 0 0 1 1.322-1.5c.742.654 1.485 1.3 2.237 1.921a1 1 0 0 1 -.639 1.77z"/><path d="m22.834 24.469a1 1 0 0 1 -.707-.293l-15.58-15.576a1 1 0 1 1 1.414-1.418l15.58 15.58a1 1 0 0 1 -.707 1.707z"/><path d="m66.111 67.746a1 1 0 0 1 -.707-.293l-15.58-15.58a1 1 0 1 1 1.414-1.414l15.58 15.58a1 1 0 0 1 -.707 1.707z"/><path d="m68.448 36.948a1 1 0 0 1 -1-1 29.429 29.429 0 0 0 -29.4-29.4 1 1 0 0 1 0-2 31.431 31.431 0 0 1 31.4 31.4 1 1 0 0 1 -1 1z"/><path d="m58.614 36.948a1 1 0 0 1 -1-1 19.584 19.584 0 0 0 -19.562-19.562 1 1 0 0 1 0-2 21.587 21.587 0 0 1 21.562 21.562 1 1 0 0 1 -1 1z"/><path d="m48.78 36.948a1 1 0 0 1 -1-1 9.738 9.738 0 0 0 -9.728-9.728 1 1 0 0 1 0-2 11.741 11.741 0 0 1 11.728 11.728 1 1 0 0 1 -1 1z"/></svg>