<?xml version="1.0" encoding="utf-8"?>
<!-- Generator: Adobe Illustrator 16.0.0, SVG Export Plug-In . SVG Version: 6.00 Build 0)  -->
<!DOCTYPE svg PUBLIC "-//W3C//DTD SVG 1.1//EN" "http://www.w3.org/Graphics/SVG/1.1/DTD/svg11.dtd">
<svg version="1.1" id="Layer_1" xmlns="http://www.w3.org/2000/svg" xmlns:xlink="http://www.w3.org/1999/xlink" x="0px" y="0px"
	 width="1100px" height="416.761px" viewBox="0 0 1100 416.761" enable-background="new 0 0 1100 416.761" xml:space="preserve">
<g>
	<path fill="none" stroke="#003889" stroke-miterlimit="10" d="M106.33,188.785H76.525l-5.102-34.101H35.175l-5.102,34.101H2.954
		L33.026,0.829h43.23L106.33,188.785z M38.934,129.176h28.462L53.433,34.124h-0.537L38.934,129.176z"/>
	<path fill="none" stroke="#003889" stroke-miterlimit="10" d="M208.359,44.059v6.712c0,19.333-5.907,31.416-19.064,37.591V88.9
		c15.842,6.176,22.018,20.138,22.018,40.008v15.305c0,28.999-15.305,44.572-44.841,44.572H120.02V0.829h44.573
		C195.202,0.829,208.359,15.06,208.359,44.059z M149.556,27.68v49.674h11.546c11.009,0,17.722-4.833,17.722-19.87V47.012
		c0-13.425-4.565-19.333-15.037-19.333H149.556z M149.556,104.205v57.729h16.916c9.935,0,15.305-4.565,15.305-18.527v-16.379
		c0-17.453-5.639-22.823-19.064-22.823H149.556z"/>
	<path fill="none" stroke="#003889" stroke-miterlimit="10" d="M226.612,45.938c0-30.073,15.842-47.258,44.841-47.258
		c28.999,0,44.841,17.185,44.841,47.258v97.737c0,30.073-15.842,47.257-44.841,47.257c-28.999,0-44.841-17.184-44.841-47.257V45.938
		z M256.148,145.555c0,13.425,5.907,18.528,15.305,18.528c9.398,0,15.305-5.103,15.305-18.528V44.059
		c0-13.426-5.907-18.527-15.305-18.527c-9.397,0-15.305,5.102-15.305,18.527V145.555z"/>
	<path fill="none" stroke="#003889" stroke-miterlimit="10" d="M363.547,0.829v144.995c0,13.425,5.907,18.259,15.305,18.259
		s15.305-4.834,15.305-18.259V0.829h27.925v143.115c0,30.072-15.037,47.258-44.036,47.258s-44.035-17.186-44.035-47.258V0.829
		H363.547z"/>
	<path fill="none" stroke="#003889" stroke-miterlimit="10" d="M433.624,0.829h91.293V27.68h-30.878v161.105h-29.536V27.68h-30.878
		V0.829z"/>
	<path fill="none" stroke="#003889" stroke-miterlimit="10" d="M54.519,208.47c31.029,0,46.979,18.559,46.979,51.039v6.379H71.338
		v-8.41c0-14.498-5.8-20.009-15.95-20.009s-15.95,5.511-15.95,20.009c0,14.791,6.38,25.811,27.259,44.08
		c26.68,23.488,35.089,40.309,35.089,63.508c0,32.48-16.24,51.039-47.559,51.039c-31.319,0-47.559-18.559-47.559-51.039v-12.469
		h30.159v14.5c0,14.498,6.38,19.719,16.53,19.719c10.149,0,16.529-5.221,16.529-19.719c0-14.791-6.38-25.811-27.259-44.08
		C15.95,299.526,7.54,282.708,7.54,259.509C7.54,227.028,23.489,208.47,54.519,208.47z"/>
	<path fill="none" stroke="#003889" stroke-miterlimit="10" d="M223.295,413.784h-32.189l-5.51-36.828h-39.149l-5.51,36.828h-29.289
		l32.479-202.994h46.689L223.295,413.784z M150.507,349.405h30.739l-15.08-102.656h-0.58L150.507,349.405z"/>
	<path fill="none" stroke="#003889" stroke-miterlimit="10" d="M305.366,354.917h0.58l21.459-144.127h44.369v202.994h-30.159
		V268.208h-0.58l-21.459,145.576h-30.159l-23.2-143.547h-0.58v143.547h-27.839V210.79h44.369L305.366,354.917z"/>
	<path fill="none" stroke="#003889" stroke-miterlimit="10" d="M385.693,210.79h98.598v28.998h-33.349v173.996h-31.899V239.788
		h-33.349V210.79z"/>
	<path fill="none" stroke="#003889" stroke-miterlimit="10" d="M530.108,296.337h43.789v29h-43.789v59.449h55.099v28.998h-86.998
		V210.79h86.998v28.998h-55.099V296.337z"/>
	<path fill="none" stroke="#003889" stroke-miterlimit="10" d="M633.928,266.759h-0.58v147.025h-28.71V210.79h40.019l32.189,121.506
		h0.58V210.79h28.42v202.994h-32.77L633.928,266.759z"/>
	<path fill="none" stroke="#003889" stroke-miterlimit="10" d="M728.754,210.79h31.898v173.996h52.49v28.998h-84.389V210.79z"/>
	<path fill="none" stroke="#003889" stroke-miterlimit="10" d="M827.061,210.79h31.9v202.994h-31.9V210.79z"/>
	<path fill="none" stroke="#003889" stroke-miterlimit="10" d="M911.156,266.759h-0.58v147.025h-28.709V210.79h40.02l32.188,121.506
		h0.58V210.79h28.42v202.994h-32.77L911.156,266.759z"/>
	<path fill="none" stroke="#003889" stroke-miterlimit="10" d="M1053.832,300.687h44.658v64.379
		c0,32.48-16.238,51.039-47.559,51.039c-31.318,0-47.559-18.559-47.559-51.039V259.509c0-32.48,16.24-51.039,47.559-51.039
		c31.32,0,47.559,18.559,47.559,51.039v19.719h-30.158v-21.75c0-14.498-6.381-20.009-16.529-20.009
		c-10.15,0-16.531,5.511-16.531,20.009v109.619c0,14.498,6.381,19.719,16.531,19.719c10.148,0,16.529-5.221,16.529-19.719v-37.41
		h-14.5V300.687z"/>
</g>
</svg>
