<?xml version="1.0" encoding="utf-8"?>
<!-- Generator: Adobe Illustrator 23.0.0, SVG Export Plug-In . SVG Version: 6.00 Build 0)  -->
<svg version="1.1" id="Layer_1" xmlns="http://www.w3.org/2000/svg" xmlns:xlink="http://www.w3.org/1999/xlink" x="0px" y="0px"
	 viewBox="0 0 1124.4 285.3" style="enable-background:new 0 0 1124.4 285.3;" xml:space="preserve">
<style type="text/css">
	.st0{fill:none;stroke:#003889;stroke-miterlimit:10;}
</style>
<g>
	<path class="st0" d="M69.1,281.5c-18.6,0-34.4-6.4-47.4-19.1c-13-12.8-19.5-28.2-19.5-46.3V66.5c0-18.2,6.5-33.7,19.6-46.5
		C34.9,7.2,50.7,0.8,69.1,0.8c18.6,0,34.3,6.4,47.3,19.3c12.9,12.8,19.4,28.3,19.4,46.4v31.3H92.1V65.6c0-6.6-2.4-12.2-7.1-16.8
		c-4.8-4.7-10.5-7-17.2-7s-12.4,2.3-17.1,7c-4.7,4.7-7,10.3-7,16.8v150.1c0,6.6,2.3,12.1,7,16.7c4.7,4.6,10.4,6.9,17.1,6.9
		s12.4-2.3,17.2-6.9c4.8-4.6,7.1-10.2,7.1-16.7v-37.8h43.7v38.3c0,18.2-6.5,33.7-19.6,46.4C103.1,275.1,87.4,281.5,69.1,281.5z"/>
	<path class="st0" d="M236.4,0.4c18.6,0,34.4,6.4,47.4,19.3c13,12.8,19.5,28.3,19.5,46.4v149.6c0,18.2-6.5,33.7-19.6,46.5
		c-13.1,12.8-28.8,19.1-47.3,19.1c-18.6,0-34.3-6.4-47.3-19.3c-12.9-12.8-19.4-28.3-19.4-46.4V66c0-18.2,6.5-33.7,19.6-46.5
		C202.4,6.8,218.1,0.4,236.4,0.4z M259.4,65.1c0-6.6-2.3-12.1-7-16.7c-4.7-4.6-10.4-6.9-17.1-6.9s-12.4,2.3-17.2,6.9
		c-4.8,4.6-7.1,10.2-7.1,16.7v150.1c0,6.6,2.4,12.1,7.1,16.7c4.8,4.6,10.5,6.9,17.2,6.9s12.4-2.3,17.1-6.9c4.7-4.6,7-10.2,7-16.7
		V65.1z"/>
	<path class="st0" d="M387.6,3.7L443.6,188V3.7h42.1V278h-45.3l-58-175.7V278h-42.1V3.7H387.6z"/>
	<path class="st0" d="M564.4,45.5h-44.8V3.9h131.6v41.6h-44.6V278h-42.1V45.5z"/>
	<path class="st0" d="M700.9,215l-10.2,63h-43.9L694.2,3.9h58L799,278h-44.3l-9.9-63H700.9z M723,66.7l-15.6,108.1h31.2L723,66.7z"
		/>
	<path class="st0" d="M894.9,281.5c-18.6,0-34.4-6.4-47.4-19.1c-13-12.8-19.5-28.2-19.5-46.3V66.5c0-18.2,6.5-33.7,19.6-46.5
		c13.1-12.8,28.8-19.1,47.3-19.1c18.6,0,34.3,6.4,47.3,19.3c12.9,12.8,19.4,28.3,19.4,46.4v31.3h-43.7V65.6c0-6.6-2.4-12.2-7.1-16.8
		c-4.8-4.7-10.5-7-17.2-7c-6.7,0-12.4,2.3-17.1,7c-4.7,4.7-7,10.3-7,16.8v150.1c0,6.6,2.3,12.1,7,16.7c4.7,4.6,10.4,6.9,17.1,6.9
		c6.7,0,12.4-2.3,17.2-6.9c4.8-4.6,7.1-10.2,7.1-16.7v-37.8h43.7v38.3c0,18.2-6.5,33.7-19.6,46.4
		C928.9,275.1,913.2,281.5,894.9,281.5z"/>
	<path class="st0" d="M1035.4,45.5h-44.8V3.9h131.6v41.6h-44.6V278h-42.1V45.5z"/>
</g>
</svg>
