<?xml version="1.0" encoding="utf-8"?>
<!-- Generator: Adobe Illustrator 16.0.0, SVG Export Plug-In . SVG Version: 6.00 Build 0)  -->
<!DOCTYPE svg PUBLIC "-//W3C//DTD SVG 1.1//EN" "http://www.w3.org/Graphics/SVG/1.1/DTD/svg11.dtd">
<svg version="1.1" id="Layer_1" xmlns="http://www.w3.org/2000/svg" xmlns:xlink="http://www.w3.org/1999/xlink" x="0px" y="0px"
	 width="1100px" height="318.521px" viewBox="0 0 1100 318.521" enable-background="new 0 0 1100 318.521" xml:space="preserve">
<g enable-background="new    ">
	<path fill="none" stroke="#003889" stroke-width="1.5" stroke-miterlimit="10" d="M76.916,6.968
		c22.412,0,40.275,7.064,53.594,21.194c12.34,13.482,18.514,30.695,18.514,51.645v44.336c0,20.14-7.026,37.355-21.072,51.645
		c-14.049,14.293-31.06,21.438-51.036,21.438H50.362v114.983H4.32V6.968H76.916z M104.443,80.538c0-7.955-2.398-14.373-7.187-19.245
		c-4.792-4.873-11.168-7.309-19.123-7.309H50.362v97.687h27.771c7.308,0,13.52-2.596,18.636-7.795
		c5.116-5.196,7.674-11.45,7.674-18.758V80.538z"/>
	<path fill="none" stroke="#003889" stroke-width="1.5" stroke-miterlimit="10" d="M185.801,312.209V6.725h131.061V53.01h-85.019
		v83.314h62.12v46.285h-62.12v83.314h85.019v46.285H185.801z"/>
	<path fill="none" stroke="#003889" stroke-width="1.5" stroke-miterlimit="10" d="M473.987,312.209H348.529V6.968h46.042v259.443
		h79.416V312.209z"/>
	<path fill="none" stroke="#003889" stroke-width="1.5" stroke-miterlimit="10" d="M631.111,312.209H505.652V6.968h46.041v259.443
		h79.418V312.209z"/>
	<path fill="none" stroke="#003889" stroke-width="1.5" stroke-miterlimit="10" d="M708.816,312.209h-46.041V6.968h46.041V312.209z"
		/>
	<path fill="none" stroke="#003889" stroke-width="1.5" stroke-miterlimit="10" d="M801.676,6.725l61.1,205.304V6.725h46.043
		v305.484h-49.453l-63.338-195.617v195.617h-46.041V6.725H801.676z"/>
	<path fill="none" stroke="#003889" stroke-width="1.5" stroke-miterlimit="10" d="M1022.332,316.106
		c-20.303,0-37.557-7.145-51.766-21.438c-14.213-14.289-21.316-31.425-21.316-51.4V76.64c0-20.299,7.145-37.554,21.438-51.767
		c14.289-14.209,31.506-21.316,51.645-21.316c20.299,0,37.516,7.148,51.645,21.438c14.131,14.293,21.195,31.509,21.195,51.645
		v34.836h-47.748V75.666c0-7.308-2.6-13.558-7.795-18.758c-5.199-5.196-11.449-7.795-18.758-7.795s-13.521,2.6-18.637,7.795
		c-5.115,5.2-7.674,11.45-7.674,18.758V242.78c0,7.309,2.559,13.521,7.674,18.637c5.115,5.115,11.328,7.674,18.637,7.674
		s13.559-2.551,18.758-7.651c5.195-5.101,7.795-11.298,7.795-18.587v-60h-25.578v-46.285h73.326v106.701
		c0,20.303-7.148,37.515-21.438,51.645C1059.441,309.042,1042.309,316.106,1022.332,316.106z"/>
</g>
</svg>
