<?xml version="1.0" encoding="utf-8"?>
<!-- Generator: Adobe Illustrator 16.0.0, SVG Export Plug-In . SVG Version: 6.00 Build 0)  -->
<!DOCTYPE svg PUBLIC "-//W3C//DTD SVG 1.1//EN" "http://www.w3.org/Graphics/SVG/1.1/DTD/svg11.dtd">
<svg version="1.1" id="Layer_1" xmlns="http://www.w3.org/2000/svg" xmlns:xlink="http://www.w3.org/1999/xlink" x="0px" y="0px"
	 width="1100px" height="379.871px" viewBox="0 0 1100 379.871" enable-background="new 0 0 1100 379.871" xml:space="preserve">
<path fill="none" stroke="#003889" stroke-width="1.5" stroke-miterlimit="10" d="M94.012,10.116
	c30.746,0,53.318,8.465,67.722,25.396c12.647,14.792,18.974,35.421,18.974,61.883v53.126c0,25.884-9.829,47.776-29.482,65.678
	l40.862,159.671h-59.663l-33.45-137.778c-1.56,0-3.211,0-4.962,0H62.194V375.87H7.024V10.116H94.012z M126.997,98.271
	c0-21.208-10.508-31.817-31.525-31.817H62.194v117.053h33.277c8.757,0,16.201-3.111,22.331-9.341
	c6.13-6.226,9.195-13.72,9.195-22.477V98.271z"/>
<path fill="none" stroke="#003889" stroke-width="1.5" stroke-miterlimit="10" d="M300.874,5.445
	c24.324,0,44.999,8.565,62.029,25.688c17.026,17.126,25.542,37.756,25.542,61.883v199.662c0,24.328-8.565,45.003-25.688,62.029
	c-17.126,17.031-37.756,25.542-61.883,25.542c-24.329,0-44.953-8.562-61.884-25.688c-16.93-17.121-25.396-37.751-25.396-61.883
	V93.016c0-24.324,8.561-44.999,25.688-62.029C256.404,13.96,276.938,5.445,300.874,5.445z M330.939,91.849
	c0-8.757-3.065-16.201-9.195-22.331c-6.13-6.13-13.574-9.195-22.331-9.195s-16.251,3.065-22.477,9.195
	c-6.23,6.13-9.341,13.573-9.341,22.331v200.247c0,8.756,3.11,16.2,9.341,22.33c6.226,6.13,13.719,9.195,22.477,9.195
	c8.757,0,16.201-3.065,22.331-9.195c6.13-6.13,9.195-13.572,9.195-22.33V91.849z"/>
<path fill="none" stroke="#003889" stroke-width="1.5" stroke-miterlimit="10" d="M506.86,5.445
	c24.321,0,44.998,8.565,62.028,25.688c17.025,17.126,25.541,37.756,25.541,61.883v199.662c0,24.328-8.563,45.003-25.688,62.029
	c-17.127,17.031-37.756,25.542-61.883,25.542c-24.328,0-44.953-8.562-61.886-25.688c-16.93-17.121-25.395-37.751-25.395-61.883
	V93.016c0-24.324,8.561-44.999,25.688-62.029C462.39,13.96,482.923,5.445,506.86,5.445z M536.927,91.849
	c0-8.757-3.065-16.201-9.194-22.331c-6.132-6.13-13.574-9.195-22.332-9.195c-8.757,0-16.25,3.065-22.478,9.195
	c-6.229,6.13-9.34,13.573-9.34,22.331v200.247c0,8.756,3.111,16.2,9.34,22.33c6.228,6.13,13.722,9.195,22.478,9.195
	c8.758,0,16.2-3.065,22.332-9.195c6.129-6.13,9.194-13.572,9.194-22.33V91.849z"/>
<path fill="none" stroke="#003889" stroke-width="1.5" stroke-miterlimit="10" d="M681.608,375.871h-55.171V9.824h79.171
	l51.416,262.949L806.378,9.824h76.06v366.047h-55.17v-230.02L779.4,375.871h-44.369l-53.423-229.436V375.871L681.608,375.871z"/>
<path fill="none" stroke="#003889" stroke-width="1.5" stroke-miterlimit="10" d="M1094.555,284.797
	c0.389,25.496-6.229,47.288-19.85,65.386c-8.953,12.261-21.601,20.921-37.947,25.979c-8.757,2.723-18.974,4.086-30.648,4.086
	c-21.602,0-39.508-5.35-53.71-16.055c-11.873-8.758-21.265-20.676-28.169-35.759c-6.91-15.078-10.946-32.352-12.114-51.813
	l52.543-3.795c2.335,21.323,7.977,36.774,16.93,46.357c6.614,7.238,14.203,10.664,22.77,10.271
	c12.063-0.388,21.696-6.331,28.897-17.824c3.694-5.646,5.547-13.729,5.547-24.247c0-15.191-6.91-30.29-20.726-45.285
	c-10.9-10.322-27.247-25.807-49.04-46.455c-18.294-17.724-31.233-33.601-38.823-47.625c-8.173-15.777-12.26-32.917-12.26-51.421
	c0-33.304,11.188-58.531,33.569-75.671c13.814-10.321,30.94-15.484,51.375-15.484c19.652,0,36.486,4.378,50.498,13.136
	c10.896,6.814,19.703,16.346,26.418,28.606c6.714,12.26,10.75,26.372,12.113,42.326l-52.834,9.633
	c-1.561-14.982-5.839-26.659-12.844-35.028c-5.063-6.029-12.36-9.049-21.895-9.049c-10.119,0-17.806,4.479-23.06,13.427
	c-4.283,7.202-6.422,16.155-6.422,26.855c0,16.739,7.197,33.765,21.601,51.083c5.445,6.618,13.619,14.404,24.521,23.352
	c12.844,10.705,21.31,18.199,25.396,22.477c13.619,13.624,24.129,27.051,31.525,40.283c3.503,6.23,6.322,11.969,8.466,17.223
	C1091.636,262.809,1094.358,274.484,1094.555,284.797z"/>
</svg>
