<?xml version="1.0" encoding="utf-8"?>
<!-- Generator: Adobe Illustrator 16.0.0, SVG Export Plug-In . SVG Version: 6.00 Build 0)  -->
<!DOCTYPE svg PUBLIC "-//W3C//DTD SVG 1.1//EN" "http://www.w3.org/Graphics/SVG/1.1/DTD/svg11.dtd">
<svg version="1.1" id="Layer_1" xmlns="http://www.w3.org/2000/svg" xmlns:xlink="http://www.w3.org/1999/xlink" x="0px" y="0px"
	 width="1100px" height="398.016px" viewBox="0 0 1100 398.016" enable-background="new 0 0 1100 398.016" xml:space="preserve">
<g enable-background="new    ">
	<path fill="none" stroke="#003889" stroke-width="1.5" stroke-miterlimit="10" d="M63.637,66.91H2.316V8.945h179.997V66.91h-61.016
		v324.299h-57.66V66.91z"/>
	<path fill="none" stroke="#003889" stroke-width="1.5" stroke-miterlimit="10" d="M313.187,4.063
		c25.421,0,47.03,8.952,64.829,26.847c17.795,17.899,26.694,39.46,26.694,64.677v208.674c0,25.426-8.952,47.034-26.847,64.829
		c-17.899,17.8-39.46,26.694-64.677,26.694c-25.426,0-46.982-8.947-64.677-26.847c-17.695-17.896-26.542-39.456-26.542-64.677
		V95.587c0-25.422,8.947-47.03,26.847-64.829C266.71,12.963,288.17,4.063,313.187,4.063z M344.61,94.367
		c0-9.152-3.203-16.932-9.61-23.339c-6.407-6.406-14.186-9.61-23.338-9.61s-16.984,3.204-23.491,9.61
		c-6.511,6.407-9.763,14.187-9.763,23.339v209.284c0,9.152,3.251,16.932,9.763,23.339c6.507,6.406,14.339,9.609,23.491,9.609
		s16.932-3.203,23.338-9.609c6.407-6.407,9.61-14.187,9.61-23.339V94.367z"/>
	<path fill="none" stroke="#003889" stroke-width="1.5" stroke-miterlimit="10" d="M546.262,395.48
		c-25.426,0-46.982-8.848-64.677-26.542c-17.695-17.695-26.542-39.15-26.542-64.372V8.945h56.439v295.012
		c0,9.152,3.251,16.932,9.763,23.338c6.507,6.406,14.339,9.609,23.491,9.609c9.152,0,16.931-3.203,23.339-9.609
		c6.406-6.406,9.609-14.186,9.609-23.338V8.945h60.1v295.622c0,25.627-8.951,47.188-26.846,64.677
		C593.039,386.737,571.479,395.48,546.262,395.48z"/>
	<path fill="none" stroke="#003889" stroke-width="1.5" stroke-miterlimit="10" d="M779.945,8.945
		c32.133,0,55.725,8.847,70.777,26.542c13.219,15.459,19.83,37.02,19.83,64.677v55.524c0,27.052-10.271,49.933-30.813,68.642
		l42.705,166.879h-62.354l-34.961-143.997c-1.631,0-3.355,0-5.186,0h-33.254v143.997h-57.66V8.945H779.945z M814.418,101.079
		c0-22.166-10.982-33.253-32.947-33.253h-34.779v122.337h34.779c9.152,0,16.932-3.251,23.338-9.763
		c6.406-6.507,9.609-14.339,9.609-23.491V101.079z"/>
	<path fill="none" stroke="#003889" stroke-width="1.5" stroke-miterlimit="10" d="M1103.021,296.024
		c0.404,26.646-6.512,49.423-20.746,68.338c-9.357,12.813-22.576,21.865-39.66,27.151c-9.152,2.847-19.83,4.271-32.033,4.271
		c-22.576,0-41.291-5.592-56.135-16.779c-12.408-9.152-22.223-21.608-29.439-37.372c-7.223-15.759-11.441-33.812-12.662-54.151
		l54.914-3.967c2.441,22.285,8.338,38.436,17.695,48.451c6.912,7.564,14.844,11.145,23.797,10.734
		c12.607-0.405,22.676-6.616,30.201-18.629c3.861-5.9,5.797-14.348,5.797-25.34c0-15.879-7.221-31.657-21.66-47.33
		c-11.393-10.788-28.477-26.972-51.254-48.551c-19.119-18.524-32.643-35.118-40.574-49.776
		c-8.543-16.489-12.814-34.402-12.814-53.742c0-34.808,11.693-61.173,35.084-79.087c14.439-10.787,32.34-16.184,53.695-16.184
		c20.539,0,38.135,4.576,52.777,13.729c11.389,7.122,20.594,17.084,27.609,29.898c7.018,12.813,11.236,27.562,12.662,44.236
		l-55.221,10.068c-1.629-15.659-6.102-27.862-13.422-36.609c-5.291-6.302-12.918-9.458-22.881-9.458
		c-10.578,0-18.611,4.681-24.102,14.034c-4.477,7.527-6.713,16.884-6.713,28.067c0,17.495,7.523,35.289,22.576,53.389
		c5.691,6.917,14.234,15.054,25.627,24.406c13.424,11.188,22.271,19.02,26.541,23.491c14.234,14.238,25.217,28.271,32.949,42.101
		c3.662,6.512,6.607,12.509,8.848,18C1099.971,273.043,1102.816,285.246,1103.021,296.024z"/>
</g>
</svg>
