
<svg width="159" height="153" viewBox="0 0 159 153" fill="none" xmlns="http://www.w3.org/2000/svg">
<rect width="159" height="153" rx="5" fill="#00175D"/>
<path d="M20.355 24H16.676V23.298L17.859 22.869V15.823L16.676 15.394V14.822H24.034V16.928H23.358L22.929 15.81H19.172V18.904H22.162L22.409 18.15H23.007V20.711H22.409L22.162 19.84H19.172V22.869L20.355 23.298V24ZM32.5266 22.843C31.6512 23.701 30.6069 24.13 29.3936 24.13C28.1802 24.13 27.1359 23.701 26.2606 22.843C25.3939 21.9763 24.9606 20.8453 24.9606 19.45C24.9606 18.046 25.3982 16.9063 26.2736 16.031C27.1489 15.147 28.1889 14.705 29.3936 14.705C30.5982 14.705 31.6426 15.147 32.5266 16.031C33.4106 16.9063 33.8526 18.046 33.8526 19.45C33.8526 20.8453 33.4106 21.9763 32.5266 22.843ZM26.3776 19.45C26.3776 20.4727 26.6462 21.335 27.1836 22.037C27.7296 22.739 28.4662 23.09 29.3936 23.09C30.3296 23.09 31.0662 22.739 31.6036 22.037C32.1409 21.335 32.4096 20.4727 32.4096 19.45C32.4096 18.4187 32.1409 17.5477 31.6036 16.837C31.0662 16.1177 30.3252 15.758 29.3806 15.758C28.4446 15.758 27.7079 16.1177 27.1706 16.837C26.6419 17.5477 26.3776 18.4187 26.3776 19.45ZM43.4075 24H39.9885V23.376L40.8205 23.038L39.0785 20.243H37.4535V22.999L38.6365 23.428V24H34.9575V23.428L36.1405 22.999V15.823L34.9575 15.394V14.822H39.0135C39.9061 14.822 40.6341 15.0473 41.1975 15.498C41.7695 15.9487 42.0555 16.6333 42.0555 17.552C42.0555 18.774 41.4835 19.5887 40.3395 19.996L42.2245 22.947L43.4075 23.376V24ZM37.4665 19.294H38.9745C39.4945 19.294 39.9235 19.1553 40.2615 18.878C40.6081 18.592 40.7815 18.1457 40.7815 17.539C40.7815 16.9323 40.5561 16.4903 40.1055 16.213C39.6548 15.9357 39.0871 15.797 38.4025 15.797H37.4665V19.294ZM47.3915 21.53H48.1715L48.5355 22.739C48.8735 23.0077 49.4239 23.142 50.1865 23.142C50.6805 23.142 51.0749 23.012 51.3695 22.752C51.6729 22.492 51.8245 22.167 51.8245 21.777C51.8245 21.3783 51.6599 21.0057 51.3305 20.659C51.0099 20.3037 50.4552 19.9787 49.6665 19.684C48.1759 19.1207 47.4305 18.332 47.4305 17.318C47.4305 16.4687 47.6992 15.823 48.2365 15.381C48.7739 14.9303 49.4325 14.705 50.2125 14.705C51.1659 14.705 51.9805 14.8653 52.6565 15.186C52.7345 15.2207 52.8082 15.2597 52.8775 15.303V17.084L52.1105 17.11L51.8115 16.057C51.4562 15.875 50.9925 15.784 50.4205 15.784C49.2505 15.784 48.6655 16.1567 48.6655 16.902C48.6655 17.318 48.8215 17.6647 49.1335 17.942C49.4542 18.2107 49.9482 18.4663 50.6155 18.709C52.2449 19.307 53.0595 20.2603 53.0595 21.569C53.0595 22.3317 52.8039 22.9513 52.2925 23.428C51.7812 23.9047 51.0402 24.143 50.0695 24.143C49.6275 24.143 49.1899 24.0867 48.7565 23.974C48.1239 23.8007 47.6689 23.6057 47.3915 23.389V21.53ZM61.6448 24H54.2868V23.428L55.4698 22.999V15.823L54.2868 15.394V14.822H61.6448V16.928H60.9688L60.5398 15.81H56.7828V18.904H59.7728L60.0198 18.15H60.6178V20.711H60.0198L59.7728 19.84H56.7828V23.012H60.5398L60.9688 21.894H61.6448V24ZM72.0937 24H68.5577V23.428L69.6237 22.999L68.7007 20.698H65.3207L64.3977 22.999L65.4377 23.428V24H62.0317V23.428L63.0977 22.999L66.2957 14.822H67.6347L70.9627 22.999L72.0937 23.428V24ZM68.3627 19.814L66.9847 16.161L65.6587 19.814H68.3627ZM72.4592 21.53H73.2392L73.6032 22.739C73.9412 23.0077 74.4915 23.142 75.2542 23.142C75.7482 23.142 76.1425 23.012 76.4372 22.752C76.7405 22.492 76.8922 22.167 76.8922 21.777C76.8922 21.3783 76.7275 21.0057 76.3982 20.659C76.0775 20.3037 75.5229 19.9787 74.7342 19.684C73.2435 19.1207 72.4982 18.332 72.4982 17.318C72.4982 16.4687 72.7669 15.823 73.3042 15.381C73.8415 14.9303 74.5002 14.705 75.2802 14.705C76.2335 14.705 77.0482 14.8653 77.7242 15.186C77.8022 15.2207 77.8759 15.2597 77.9452 15.303V17.084L77.1782 17.11L76.8792 16.057C76.5239 15.875 76.0602 15.784 75.4882 15.784C74.3182 15.784 73.7332 16.1567 73.7332 16.902C73.7332 17.318 73.8892 17.6647 74.2012 17.942C74.5219 18.2107 75.0159 18.4663 75.6832 18.709C77.3125 19.307 78.1272 20.2603 78.1272 21.569C78.1272 22.3317 77.8715 22.9513 77.3602 23.428C76.8489 23.9047 76.1079 24.143 75.1372 24.143C74.6952 24.143 74.2575 24.0867 73.8242 23.974C73.1915 23.8007 72.7365 23.6057 72.4592 23.389V21.53ZM86.9595 22.843C86.0841 23.701 85.0398 24.13 83.8265 24.13C82.6131 24.13 81.5688 23.701 80.6935 22.843C79.8268 21.9763 79.3935 20.8453 79.3935 19.45C79.3935 18.046 79.8311 16.9063 80.7065 16.031C81.5818 15.147 82.6218 14.705 83.8265 14.705C85.0311 14.705 86.0755 15.147 86.9595 16.031C87.8435 16.9063 88.2855 18.046 88.2855 19.45C88.2855 20.8453 87.8435 21.9763 86.9595 22.843ZM80.8105 19.45C80.8105 20.4727 81.0791 21.335 81.6165 22.037C82.1625 22.739 82.8991 23.09 83.8265 23.09C84.7625 23.09 85.4991 22.739 86.0365 22.037C86.5738 21.335 86.8425 20.4727 86.8425 19.45C86.8425 18.4187 86.5738 17.5477 86.0365 16.837C85.4991 16.1177 84.7581 15.758 83.8135 15.758C82.8775 15.758 82.1408 16.1177 81.6035 16.837C81.0748 17.5477 80.8105 18.4187 80.8105 19.45ZM97.3074 24H96.1114L91.8864 16.759V22.999L92.7834 23.428V24H89.3904V23.428L90.5734 22.999V15.823L89.3904 15.394V14.822H92.0554L95.9944 21.608V15.823L95.0974 15.394V14.822H98.4904V15.394L97.3074 15.823V24ZM101.979 14.822H105.944V15.524L104.761 15.888L106.815 22.362L108.531 15.745L107.465 15.563V14.822H110.923V15.524L109.987 15.706L111.638 22.362L113.692 15.888L112.509 15.524V14.822H116.396V15.563L115.018 15.927L112.34 24H110.858L109.22 17.747L107.517 24H106.035L103.357 15.927L101.979 15.563V14.822ZM120.371 24H116.692V23.428L117.875 22.999V15.823L116.692 15.394V14.822H120.371V15.394L119.188 15.823V22.999L120.371 23.428V24ZM121.642 21.53H122.422L122.786 22.739C123.124 23.0077 123.675 23.142 124.437 23.142C124.931 23.142 125.326 23.012 125.62 22.752C125.924 22.492 126.075 22.167 126.075 21.777C126.075 21.3783 125.911 21.0057 125.581 20.659C125.261 20.3037 124.706 19.9787 123.917 19.684C122.427 19.1207 121.681 18.332 121.681 17.318C121.681 16.4687 121.95 15.823 122.487 15.381C123.025 14.9303 123.683 14.705 124.463 14.705C125.417 14.705 126.231 14.8653 126.907 15.186C126.985 15.2207 127.059 15.2597 127.128 15.303V17.084L126.361 17.11L126.062 16.057C125.707 15.875 125.243 15.784 124.671 15.784C123.501 15.784 122.916 16.1567 122.916 16.902C122.916 17.318 123.072 17.6647 123.384 17.942C123.705 18.2107 124.199 18.4663 124.866 18.709C126.496 19.307 127.31 20.2603 127.31 21.569C127.31 22.3317 127.055 22.9513 126.543 23.428C126.032 23.9047 125.291 24.143 124.32 24.143C123.878 24.143 123.441 24.0867 123.007 23.974C122.375 23.8007 121.92 23.6057 121.642 23.389V21.53ZM135.896 24H128.538V23.428L129.721 22.999V15.823L128.538 15.394V14.822H135.896V16.928H135.22L134.791 15.81H131.034V18.904H134.024L134.271 18.15H134.869V20.711H134.271L134.024 19.84H131.034V23.012H134.791L135.22 21.894H135.896V24Z" fill="white"/>
<path d="M15.909 92V75.9H23.223C24.971 75.9 26.512 76.2373 27.846 76.912C29.18 77.5713 30.2227 78.499 30.974 79.695C31.7253 80.891 32.101 82.3093 32.101 83.95C32.101 85.5753 31.7253 86.9937 30.974 88.205C30.2227 89.401 29.18 90.3363 27.846 91.011C26.512 91.6703 24.971 92 23.223 92H15.909ZM19.635 88.941H23.039C24.1123 88.941 25.04 88.7417 25.822 88.343C26.6193 87.929 27.2327 87.3463 27.662 86.595C28.1067 85.8437 28.329 84.962 28.329 83.95C28.329 82.9227 28.1067 82.041 27.662 81.305C27.2327 80.5537 26.6193 79.9787 25.822 79.58C25.04 79.166 24.1123 78.959 23.039 78.959H19.635V88.941ZM34.681 92V75.9H38.407V92H34.681ZM47.2878 92.276C45.9998 92.276 44.7655 92.1073 43.5848 91.77C42.4042 91.4173 41.4535 90.965 40.7328 90.413L41.9978 87.607C42.6878 88.0977 43.5005 88.504 44.4358 88.826C45.3865 89.1327 46.3448 89.286 47.3108 89.286C48.0468 89.286 48.6372 89.217 49.0818 89.079C49.5418 88.9257 49.8792 88.7187 50.0938 88.458C50.3085 88.1973 50.4158 87.8983 50.4158 87.561C50.4158 87.1317 50.2472 86.7943 49.9098 86.549C49.5725 86.2883 49.1278 86.0813 48.5758 85.928C48.0238 85.7593 47.4105 85.606 46.7358 85.468C46.0765 85.3147 45.4095 85.1307 44.7348 84.916C44.0755 84.7013 43.4698 84.4253 42.9178 84.088C42.3658 83.7507 41.9135 83.306 41.5608 82.754C41.2235 82.202 41.0548 81.4967 41.0548 80.638C41.0548 79.718 41.3002 78.8823 41.7908 78.131C42.2968 77.3643 43.0482 76.7587 44.0448 76.314C45.0568 75.854 46.3218 75.624 47.8398 75.624C48.8518 75.624 49.8485 75.7467 50.8298 75.992C51.8112 76.222 52.6775 76.5747 53.4288 77.05L52.2788 79.879C51.5275 79.4497 50.7762 79.1353 50.0248 78.936C49.2735 78.7213 48.5375 78.614 47.8168 78.614C47.0962 78.614 46.5058 78.6983 46.0458 78.867C45.5858 79.0357 45.2562 79.258 45.0568 79.534C44.8575 79.7947 44.7578 80.1013 44.7578 80.454C44.7578 80.868 44.9265 81.2053 45.2638 81.466C45.6012 81.7113 46.0458 81.9107 46.5978 82.064C47.1498 82.2173 47.7555 82.3707 48.4148 82.524C49.0895 82.6773 49.7565 82.8537 50.4158 83.053C51.0905 83.2523 51.7038 83.5207 52.2558 83.858C52.8078 84.1953 53.2525 84.64 53.5898 85.192C53.9425 85.744 54.1188 86.4417 54.1188 87.285C54.1188 88.1897 53.8658 89.0177 53.3598 89.769C52.8538 90.5203 52.0948 91.126 51.0828 91.586C50.0862 92.046 48.8212 92.276 47.2878 92.276ZM64.1398 92.276C62.8978 92.276 61.7402 92.0767 60.6668 91.678C59.6088 91.264 58.6888 90.6813 57.9068 89.93C57.1248 89.1787 56.5115 88.297 56.0668 87.285C55.6375 86.273 55.4228 85.1613 55.4228 83.95C55.4228 82.7387 55.6375 81.627 56.0668 80.615C56.5115 79.603 57.1248 78.7213 57.9068 77.97C58.7042 77.2187 59.6318 76.6437 60.6898 76.245C61.7478 75.831 62.9055 75.624 64.1628 75.624C65.5582 75.624 66.8155 75.8693 67.9348 76.36C69.0695 76.8353 70.0202 77.5407 70.7868 78.476L68.3948 80.684C67.8428 80.0553 67.2295 79.5877 66.5548 79.281C65.8802 78.959 65.1442 78.798 64.3468 78.798C63.5955 78.798 62.9055 78.9207 62.2768 79.166C61.6482 79.4113 61.1038 79.764 60.6438 80.224C60.1838 80.684 59.8235 81.2283 59.5628 81.857C59.3175 82.4857 59.1948 83.1833 59.1948 83.95C59.1948 84.7167 59.3175 85.4143 59.5628 86.043C59.8235 86.6717 60.1838 87.216 60.6438 87.676C61.1038 88.136 61.6482 88.4887 62.2768 88.734C62.9055 88.9793 63.5955 89.102 64.3468 89.102C65.1442 89.102 65.8802 88.9487 66.5548 88.642C67.2295 88.32 67.8428 87.837 68.3948 87.193L70.7868 89.401C70.0202 90.3363 69.0695 91.0493 67.9348 91.54C66.8155 92.0307 65.5505 92.276 64.1398 92.276ZM80.5561 92.276C79.2834 92.276 78.1027 92.069 77.0141 91.655C75.9407 91.241 75.0054 90.6583 74.2081 89.907C73.4261 89.1557 72.8127 88.274 72.3681 87.262C71.9387 86.25 71.7241 85.146 71.7241 83.95C71.7241 82.754 71.9387 81.65 72.3681 80.638C72.8127 79.626 73.4337 78.7443 74.2311 77.993C75.0284 77.2417 75.9637 76.659 77.0371 76.245C78.1104 75.831 79.2757 75.624 80.5331 75.624C81.8057 75.624 82.9711 75.831 84.0291 76.245C85.1024 76.659 86.0301 77.2417 86.8121 77.993C87.6094 78.7443 88.2304 79.626 88.6751 80.638C89.1197 81.6347 89.3421 82.7387 89.3421 83.95C89.3421 85.146 89.1197 86.2577 88.6751 87.285C88.2304 88.297 87.6094 89.1787 86.8121 89.93C86.0301 90.666 85.1024 91.241 84.0291 91.655C82.9711 92.069 81.8134 92.276 80.5561 92.276ZM80.5331 89.102C81.2537 89.102 81.9131 88.9793 82.5111 88.734C83.1244 88.4887 83.6611 88.136 84.1211 87.676C84.5811 87.216 84.9337 86.6717 85.1791 86.043C85.4397 85.4143 85.5701 84.7167 85.5701 83.95C85.5701 83.1833 85.4397 82.4857 85.1791 81.857C84.9337 81.2283 84.5811 80.684 84.1211 80.224C83.6764 79.764 83.1474 79.4113 82.5341 79.166C81.9207 78.9207 81.2537 78.798 80.5331 78.798C79.8124 78.798 79.1454 78.9207 78.5321 79.166C77.9341 79.4113 77.4051 79.764 76.9451 80.224C76.4851 80.684 76.1247 81.2283 75.8641 81.857C75.6187 82.4857 75.4961 83.1833 75.4961 83.95C75.4961 84.7013 75.6187 85.399 75.8641 86.043C76.1247 86.6717 76.4774 87.216 76.9221 87.676C77.3821 88.136 77.9187 88.4887 78.5321 88.734C79.1454 88.9793 79.8124 89.102 80.5331 89.102ZM99.0653 92.276C96.7807 92.276 94.9943 91.6397 93.7063 90.367C92.4183 89.0943 91.7743 87.2773 91.7743 84.916V75.9H95.5003V84.778C95.5003 86.3113 95.8147 87.4153 96.4433 88.09C97.072 88.7647 97.9537 89.102 99.0883 89.102C100.223 89.102 101.105 88.7647 101.733 88.09C102.362 87.4153 102.676 86.3113 102.676 84.778V75.9H106.356V84.916C106.356 87.2773 105.712 89.0943 104.424 90.367C103.136 91.6397 101.35 92.276 99.0653 92.276ZM109.808 92V75.9H112.89L122.389 87.492H120.894V75.9H124.574V92H121.515L111.993 80.408H113.488V92H109.808ZM131.488 92V78.936H126.336V75.9H140.366V78.936H135.214V92H131.488Z" fill="white"/>
<path d="M21.88 52.976C22.832 52.976 23.8073 53.1767 24.806 53.578V55.86H23.798L23.546 54.404C23.042 54.1987 22.496 54.096 21.908 54.096C20.788 54.096 19.892 54.488 19.22 55.272C18.5573 56.0467 18.226 57.0173 18.226 58.184C18.226 59.3507 18.5527 60.284 19.206 60.984C19.8687 61.6747 20.704 62.02 21.712 62.02C22.3653 62.02 23.028 61.866 23.7 61.558V59.332L22.314 58.87V58.254H26.276V58.87L25.002 59.332V62.048C24.3673 62.524 23.602 62.8507 22.706 63.028C22.314 63.112 21.866 63.154 21.362 63.154C20.858 63.154 20.3213 63.0513 19.752 62.846C19.192 62.6313 18.688 62.328 18.24 61.936C17.792 61.544 17.4327 61.0307 17.162 60.396C16.8913 59.752 16.756 59.024 16.756 58.212C16.756 57.4 16.9053 56.6533 17.204 55.972C17.5027 55.2907 17.8947 54.7353 18.38 54.306C19.3973 53.4193 20.564 52.976 21.88 52.976ZM36.157 63H32.475V62.328L33.371 61.964L31.495 58.954H29.745V61.922L31.019 62.384V63H27.057V62.384L28.331 61.922V54.194L27.057 53.732V53.116H31.425C32.3864 53.116 33.1704 53.3587 33.777 53.844C34.393 54.3293 34.701 55.0667 34.701 56.056C34.701 57.372 34.085 58.2493 32.853 58.688L34.883 61.866L36.157 62.328V63ZM29.759 57.932H31.383C31.943 57.932 32.405 57.7827 32.769 57.484C33.1424 57.176 33.329 56.6953 33.329 56.042C33.329 55.3887 33.0864 54.9127 32.601 54.614C32.1157 54.3153 31.5044 54.166 30.767 54.166H29.759V57.932ZM44.6604 61.754C43.7177 62.678 42.5931 63.14 41.2864 63.14C39.9797 63.14 38.8551 62.678 37.9124 61.754C36.9791 60.8207 36.5124 59.6027 36.5124 58.1C36.5124 56.588 36.9837 55.3607 37.9264 54.418C38.8691 53.466 39.9891 52.99 41.2864 52.99C42.5837 52.99 43.7084 53.466 44.6604 54.418C45.6124 55.3607 46.0884 56.588 46.0884 58.1C46.0884 59.6027 45.6124 60.8207 44.6604 61.754ZM38.0384 58.1C38.0384 59.2013 38.3277 60.13 38.9064 60.886C39.4944 61.642 40.2877 62.02 41.2864 62.02C42.2944 62.02 43.0877 61.642 43.6664 60.886C44.2451 60.13 44.5344 59.2013 44.5344 58.1C44.5344 56.9893 44.2451 56.0513 43.6664 55.286C43.0877 54.5113 42.2897 54.124 41.2724 54.124C40.2644 54.124 39.4711 54.5113 38.8924 55.286C38.3231 56.0513 38.0384 56.9893 38.0384 58.1ZM54.2529 59.234V54.194L52.9789 53.732V53.116H56.9409V53.732L55.6669 54.194V59.066C55.6669 60.326 55.3496 61.3247 54.7149 62.062C54.0803 62.79 53.1376 63.154 51.8869 63.154C50.6363 63.154 49.6936 62.79 49.0589 62.062C48.4336 61.334 48.1209 60.3353 48.1209 59.066V54.194L46.8469 53.732V53.116H50.8089V53.732L49.5349 54.194V59.234C49.5349 60.1113 49.7403 60.7973 50.1509 61.292C50.5709 61.7867 51.1496 62.034 51.8869 62.034C52.6336 62.034 53.2123 61.7913 53.6229 61.306C54.0429 60.8113 54.2529 60.1207 54.2529 59.234ZM61.7337 63H57.7717V62.384L59.0457 61.922V54.194L57.7717 53.732V53.116H62.1397C62.9984 53.116 63.7591 53.4007 64.4217 53.97C65.0844 54.53 65.4157 55.3233 65.4157 56.35C65.4157 57.3673 65.1031 58.1607 64.4777 58.73C63.8524 59.29 63.0731 59.57 62.1397 59.57H60.4597V61.922L61.7337 62.384V63ZM60.4737 58.548H61.4817C62.2097 58.548 62.8164 58.366 63.3017 58.002C63.7964 57.638 64.0437 57.0827 64.0437 56.336C64.0437 54.8893 63.1897 54.166 61.4817 54.166H60.4737V58.548ZM74.8256 63H69.9676V62.384L71.2416 61.922V54.194L69.9676 53.732V53.116H74.0696C75.3203 53.116 76.2443 53.48 76.8416 54.208C77.1776 54.6187 77.3456 55.1227 77.3456 55.72C77.3456 56.5973 77.0469 57.2647 76.4496 57.722C77.5509 58.1233 78.1016 58.9353 78.1016 60.158C78.1016 60.662 77.9989 61.1053 77.7936 61.488C77.5883 61.8707 77.3176 62.1693 76.9816 62.384C76.3283 62.7947 75.6096 63 74.8256 63ZM72.6556 61.95H74.1676C75.0263 61.95 75.6656 61.8193 76.0856 61.558C76.5149 61.2967 76.7296 60.844 76.7296 60.2C76.7296 59.556 76.5476 59.094 76.1836 58.814C75.8196 58.534 75.3529 58.394 74.7836 58.394H72.6556V61.95ZM72.6696 57.47H74.0276C75.3249 57.47 75.9736 56.8913 75.9736 55.734C75.9736 55.1367 75.7589 54.726 75.3296 54.502C74.9003 54.278 74.2609 54.166 73.4116 54.166H72.6696V57.47ZM87.4342 61.754C86.4916 62.678 85.3669 63.14 84.0602 63.14C82.7536 63.14 81.6289 62.678 80.6862 61.754C79.7529 60.8207 79.2862 59.6027 79.2862 58.1C79.2862 56.588 79.7576 55.3607 80.7002 54.418C81.6429 53.466 82.7629 52.99 84.0602 52.99C85.3576 52.99 86.4822 53.466 87.4342 54.418C88.3862 55.3607 88.8622 56.588 88.8622 58.1C88.8622 59.6027 88.3862 60.8207 87.4342 61.754ZM80.8122 58.1C80.8122 59.2013 81.1016 60.13 81.6802 60.886C82.2682 61.642 83.0616 62.02 84.0602 62.02C85.0682 62.02 85.8616 61.642 86.4402 60.886C87.0189 60.13 87.3082 59.2013 87.3082 58.1C87.3082 56.9893 87.0189 56.0513 86.4402 55.286C85.8616 54.5113 85.0636 54.124 84.0462 54.124C83.0382 54.124 82.2449 54.5113 81.6662 55.286C81.0969 56.0513 80.8122 56.9893 80.8122 58.1ZM98.2421 61.754C97.2995 62.678 96.1748 63.14 94.8681 63.14C93.5615 63.14 92.4368 62.678 91.4941 61.754C90.5608 60.8207 90.0941 59.6027 90.0941 58.1C90.0941 56.588 90.5655 55.3607 91.5081 54.418C92.4508 53.466 93.5708 52.99 94.8681 52.99C96.1655 52.99 97.2901 53.466 98.2421 54.418C99.1941 55.3607 99.6701 56.588 99.6701 58.1C99.6701 59.6027 99.1941 60.8207 98.2421 61.754ZM91.6201 58.1C91.6201 59.2013 91.9095 60.13 92.4881 60.886C93.0761 61.642 93.8695 62.02 94.8681 62.02C95.8761 62.02 96.6695 61.642 97.2481 60.886C97.8268 60.13 98.1161 59.2013 98.1161 58.1C98.1161 56.9893 97.8268 56.0513 97.2481 55.286C96.6695 54.5113 95.8715 54.124 94.8541 54.124C93.8461 54.124 93.0528 54.5113 92.4741 55.286C91.9048 56.0513 91.6201 56.9893 91.6201 58.1ZM110.744 63H106.992V62.328L107.888 61.964L103.548 58.24V61.922L104.822 62.384V63H100.86V62.384L102.134 61.922V54.194L100.86 53.732V53.116H104.822V53.732L103.548 54.194V57.75L107.314 54.18L106.362 53.788V53.116H110.002V53.788L108.84 54.264L105.116 57.862L109.554 61.852L110.744 62.328V63ZM115.097 63H111.135V62.384L112.409 61.922V54.194L111.135 53.732V53.116H115.097V53.732L113.823 54.194V61.922L115.097 62.384V63ZM124.767 63H123.479L118.929 55.202V61.922L119.895 62.384V63H116.241V62.384L117.515 61.922V54.194L116.241 53.732V53.116H119.111L123.353 60.424V54.194L122.387 53.732V53.116H126.041V53.732L124.767 54.194V63ZM132.215 52.976C133.167 52.976 134.143 53.1767 135.141 53.578V55.86H134.133L133.881 54.404C133.377 54.1987 132.831 54.096 132.243 54.096C131.123 54.096 130.227 54.488 129.555 55.272C128.893 56.0467 128.561 57.0173 128.561 58.184C128.561 59.3507 128.888 60.284 129.541 60.984C130.204 61.6747 131.039 62.02 132.047 62.02C132.701 62.02 133.363 61.866 134.035 61.558V59.332L132.649 58.87V58.254H136.611V58.87L135.337 59.332V62.048C134.703 62.524 133.937 62.8507 133.041 63.028C132.649 63.112 132.201 63.154 131.697 63.154C131.193 63.154 130.657 63.0513 130.087 62.846C129.527 62.6313 129.023 62.328 128.575 61.936C128.127 61.544 127.768 61.0307 127.497 60.396C127.227 59.752 127.091 59.024 127.091 58.212C127.091 57.4 127.241 56.6533 127.539 55.972C127.838 55.2907 128.23 54.7353 128.715 54.306C129.733 53.4193 130.899 52.976 132.215 52.976Z" fill="white"/>
<path d="M66.02 43L69.22 36H69.95L73.15 43H72.37L69.43 36.43H69.73L66.79 43H66.02ZM67.28 41.13L67.5 40.53H71.57L71.79 41.13H67.28ZM74.208 43V36H74.818L79.648 42.08H79.328V36H80.058V43H79.448L74.628 36.92H74.948V43H74.208ZM82.2427 43V36H85.0927C85.8394 36 86.4927 36.15 87.0527 36.45C87.6194 36.7433 88.0594 37.1533 88.3727 37.68C88.6861 38.2067 88.8427 38.8133 88.8427 39.5C88.8427 40.1867 88.6861 40.7933 88.3727 41.32C88.0594 41.8467 87.6194 42.26 87.0527 42.56C86.4927 42.8533 85.8394 43 85.0927 43H82.2427ZM82.9827 42.36H85.0527C85.6727 42.36 86.2094 42.24 86.6627 42C87.1227 41.7533 87.4794 41.4167 87.7327 40.99C87.9861 40.5567 88.1127 40.06 88.1127 39.5C88.1127 38.9333 87.9861 38.4367 87.7327 38.01C87.4794 37.5833 87.1227 37.25 86.6627 37.01C86.2094 36.7633 85.6727 36.64 85.0527 36.64H82.9827V42.36Z" fill="#DFE7FF"/>
<path d="M30 39H58.5612" stroke="#DFE7FF" stroke-linecap="round"/>
<path d="M97 39H125.561" stroke="#DFE7FF" stroke-linecap="round"/>
<rect x="13" y="104" width="132" height="41" rx="5" fill="white"/>
<path d="M24.849 120L22.297 112.3H23.782L26.059 119.263H25.322L27.687 112.3H29.007L31.306 119.263H30.591L32.923 112.3H34.287L31.735 120H30.217L28.116 113.719H28.512L26.378 120H24.849ZM40.754 112.3H42.184V120H40.754V112.3ZM36.772 120H35.342V112.3H36.772V120ZM40.864 116.7H36.651V115.479H40.864V116.7ZM43.0482 120L46.5132 112.3H47.9212L51.3972 120H49.9012L46.9202 113.059H47.4922L44.5222 120H43.0482ZM44.6432 118.218L45.0282 117.096H49.1862L49.5712 118.218H44.6432ZM53.4418 120V113.51H50.8898V112.3H57.4238V113.51H54.8718V120H53.4418ZM60.6988 120.11C60.0974 120.11 59.5218 120.026 58.9718 119.857C58.4218 119.681 57.9854 119.457 57.6628 119.186L58.1578 118.075C58.4658 118.317 58.8471 118.519 59.3018 118.68C59.7564 118.841 60.2221 118.922 60.6988 118.922C61.1021 118.922 61.4284 118.878 61.6778 118.79C61.9271 118.702 62.1104 118.585 62.2278 118.438C62.3451 118.284 62.4038 118.112 62.4038 117.921C62.4038 117.686 62.3194 117.499 62.1508 117.36C61.9821 117.213 61.7621 117.1 61.4908 117.019C61.2268 116.931 60.9298 116.85 60.5998 116.777C60.2771 116.704 59.9508 116.619 59.6208 116.524C59.2981 116.421 59.0011 116.293 58.7298 116.139C58.4658 115.978 58.2494 115.765 58.0808 115.501C57.9121 115.237 57.8278 114.9 57.8278 114.489C57.8278 114.071 57.9378 113.69 58.1578 113.345C58.3851 112.993 58.7261 112.714 59.1808 112.509C59.6428 112.296 60.2258 112.19 60.9298 112.19C61.3918 112.19 61.8501 112.249 62.3048 112.366C62.7594 112.483 63.1554 112.652 63.4928 112.872L63.0418 113.983C62.6971 113.778 62.3414 113.627 61.9748 113.532C61.6081 113.429 61.2561 113.378 60.9188 113.378C60.5228 113.378 60.2001 113.426 59.9508 113.521C59.7088 113.616 59.5291 113.741 59.4118 113.895C59.3018 114.049 59.2468 114.225 59.2468 114.423C59.2468 114.658 59.3274 114.848 59.4888 114.995C59.6574 115.134 59.8738 115.244 60.1378 115.325C60.4091 115.406 60.7098 115.486 61.0398 115.567C61.3698 115.64 61.6961 115.725 62.0188 115.82C62.3488 115.915 62.6458 116.04 62.9098 116.194C63.1811 116.348 63.3974 116.557 63.5588 116.821C63.7274 117.085 63.8118 117.419 63.8118 117.822C63.8118 118.233 63.6981 118.614 63.4708 118.966C63.2508 119.311 62.9098 119.589 62.4478 119.802C61.9858 120.007 61.4028 120.11 60.6988 120.11ZM64.0307 120L67.4957 112.3H68.9037L72.3797 120H70.8837L67.9027 113.059H68.4747L65.5047 120H64.0307ZM65.6257 118.218L66.0107 117.096H70.1687L70.5537 118.218H65.6257ZM73.249 120V112.3H76.417C77.099 112.3 77.682 112.41 78.166 112.63C78.6573 112.85 79.035 113.165 79.299 113.576C79.563 113.987 79.695 114.474 79.695 115.039C79.695 115.604 79.563 116.091 79.299 116.502C79.035 116.913 78.6573 117.228 78.166 117.448C77.682 117.668 77.099 117.778 76.417 117.778H74.041L74.679 117.107V120H73.249ZM74.679 117.261L74.041 116.568H76.351C76.9817 116.568 77.4547 116.436 77.77 116.172C78.0927 115.901 78.254 115.523 78.254 115.039C78.254 114.548 78.0927 114.17 77.77 113.906C77.4547 113.642 76.9817 113.51 76.351 113.51H74.041L74.679 112.806V117.261ZM81.013 120V112.3H84.181C84.863 112.3 85.446 112.41 85.93 112.63C86.4214 112.85 86.799 113.165 87.063 113.576C87.327 113.987 87.459 114.474 87.459 115.039C87.459 115.604 87.327 116.091 87.063 116.502C86.799 116.913 86.4214 117.228 85.93 117.448C85.446 117.668 84.863 117.778 84.181 117.778H81.805L82.443 117.107V120H81.013ZM82.443 117.261L81.805 116.568H84.115C84.7457 116.568 85.2187 116.436 85.534 116.172C85.8567 115.901 86.018 115.523 86.018 115.039C86.018 114.548 85.8567 114.17 85.534 113.906C85.2187 113.642 84.7457 113.51 84.115 113.51H81.805L82.443 112.806V117.261ZM87.0263 121.1L90.6563 110.738H91.8883L88.2583 121.1H87.0263ZM95.7115 120.11C95.1249 120.11 94.5785 120.015 94.0725 119.824C93.5739 119.626 93.1375 119.351 92.7635 118.999C92.3969 118.64 92.1109 118.218 91.9055 117.734C91.7002 117.25 91.5975 116.722 91.5975 116.15C91.5975 115.578 91.7002 115.05 91.9055 114.566C92.1109 114.082 92.4005 113.664 92.7745 113.312C93.1485 112.953 93.5849 112.678 94.0835 112.487C94.5822 112.289 95.1285 112.19 95.7225 112.19C96.3532 112.19 96.9289 112.3 97.4495 112.52C97.9702 112.733 98.4102 113.052 98.7695 113.477L97.8455 114.346C97.5669 114.045 97.2552 113.822 96.9105 113.675C96.5659 113.521 96.1919 113.444 95.7885 113.444C95.3852 113.444 95.0149 113.51 94.6775 113.642C94.3475 113.774 94.0579 113.961 93.8085 114.203C93.5665 114.445 93.3759 114.731 93.2365 115.061C93.1045 115.391 93.0385 115.754 93.0385 116.15C93.0385 116.546 93.1045 116.909 93.2365 117.239C93.3759 117.569 93.5665 117.855 93.8085 118.097C94.0579 118.339 94.3475 118.526 94.6775 118.658C95.0149 118.79 95.3852 118.856 95.7885 118.856C96.1919 118.856 96.5659 118.783 96.9105 118.636C97.2552 118.482 97.5669 118.251 97.8455 117.943L98.7695 118.823C98.4102 119.241 97.9702 119.56 97.4495 119.78C96.9289 120 96.3495 120.11 95.7115 120.11ZM98.7796 120L102.245 112.3H103.653L107.129 120H105.633L102.652 113.059H103.224L100.254 120H98.7796ZM100.375 118.218L100.76 117.096H104.918L105.303 118.218H100.375ZM107.998 120V112.3H109.428V118.79H113.454V120H107.998ZM114.473 120V112.3H115.903V118.79H119.929V120H114.473ZM127.189 120.11C126.133 120.11 125.304 119.813 124.703 119.219C124.109 118.625 123.812 117.767 123.812 116.645V112.3H125.242V116.59C125.242 117.382 125.41 117.958 125.748 118.317C126.092 118.676 126.576 118.856 127.2 118.856C127.823 118.856 128.303 118.676 128.641 118.317C128.978 117.958 129.147 117.382 129.147 116.59V112.3H130.555V116.645C130.555 117.767 130.254 118.625 129.653 119.219C129.059 119.813 128.237 120.11 127.189 120.11ZM134.834 120.11C134.233 120.11 133.657 120.026 133.107 119.857C132.557 119.681 132.121 119.457 131.798 119.186L132.293 118.075C132.601 118.317 132.983 118.519 133.437 118.68C133.892 118.841 134.358 118.922 134.834 118.922C135.238 118.922 135.564 118.878 135.813 118.79C136.063 118.702 136.246 118.585 136.363 118.438C136.481 118.284 136.539 118.112 136.539 117.921C136.539 117.686 136.455 117.499 136.286 117.36C136.118 117.213 135.898 117.1 135.626 117.019C135.362 116.931 135.065 116.85 134.735 116.777C134.413 116.704 134.086 116.619 133.756 116.524C133.434 116.421 133.137 116.293 132.865 116.139C132.601 115.978 132.385 115.765 132.216 115.501C132.048 115.237 131.963 114.9 131.963 114.489C131.963 114.071 132.073 113.69 132.293 113.345C132.521 112.993 132.862 112.714 133.316 112.509C133.778 112.296 134.361 112.19 135.065 112.19C135.527 112.19 135.986 112.249 136.44 112.366C136.895 112.483 137.291 112.652 137.628 112.872L137.177 113.983C136.833 113.778 136.477 113.627 136.11 113.532C135.744 113.429 135.392 113.378 135.054 113.378C134.658 113.378 134.336 113.426 134.086 113.521C133.844 113.616 133.665 113.741 133.547 113.895C133.437 114.049 133.382 114.225 133.382 114.423C133.382 114.658 133.463 114.848 133.624 114.995C133.793 115.134 134.009 115.244 134.273 115.325C134.545 115.406 134.845 115.486 135.175 115.567C135.505 115.64 135.832 115.725 136.154 115.82C136.484 115.915 136.781 116.04 137.045 116.194C137.317 116.348 137.533 116.557 137.694 116.821C137.863 117.085 137.947 117.419 137.947 117.822C137.947 118.233 137.834 118.614 137.606 118.966C137.386 119.311 137.045 119.589 136.583 119.802C136.121 120.007 135.538 120.11 134.834 120.11Z" fill="#00175D"/>
<path d="M28.388 136.25V129.95H29.886V136.25H28.388ZM25.91 133.8V132.4H32.364V133.8H25.91ZM37.0378 128.06C37.9338 128.06 38.6945 128.251 39.3198 128.634C39.9545 129.007 40.4398 129.553 40.7758 130.272C41.1118 130.991 41.2798 131.877 41.2798 132.932C41.2798 134.052 41.0745 134.999 40.6638 135.774C40.2625 136.549 39.7025 137.137 38.9838 137.538C38.2651 137.939 37.4298 138.14 36.4778 138.14C35.9831 138.14 35.5118 138.089 35.0638 137.986C34.6158 137.883 34.2285 137.725 33.9018 137.51L34.5738 136.138C34.8445 136.315 35.1385 136.441 35.4558 136.516C35.7731 136.581 36.0998 136.614 36.4358 136.614C37.3598 136.614 38.0925 136.329 38.6338 135.76C39.1751 135.191 39.4458 134.351 39.4458 133.24C39.4458 133.063 39.4411 132.857 39.4318 132.624C39.4225 132.381 39.3898 132.139 39.3338 131.896L39.8938 132.512C39.7351 132.895 39.5065 133.217 39.2078 133.478C38.9091 133.73 38.5591 133.921 38.1578 134.052C37.7565 134.183 37.3131 134.248 36.8278 134.248C36.1931 134.248 35.6191 134.127 35.1058 133.884C34.6018 133.632 34.2005 133.282 33.9018 132.834C33.6031 132.377 33.4538 131.845 33.4538 131.238C33.4538 130.585 33.6125 130.025 33.9298 129.558C34.2471 129.082 34.6765 128.713 35.2178 128.452C35.7685 128.191 36.3751 128.06 37.0378 128.06ZM37.1358 129.488C36.7625 129.488 36.4311 129.558 36.1418 129.698C35.8525 129.829 35.6238 130.02 35.4558 130.272C35.2971 130.515 35.2178 130.809 35.2178 131.154C35.2178 131.667 35.3951 132.073 35.7498 132.372C36.1045 132.671 36.5805 132.82 37.1778 132.82C37.5698 132.82 37.9151 132.75 38.2138 132.61C38.5125 132.461 38.7458 132.26 38.9138 132.008C39.0818 131.747 39.1658 131.457 39.1658 131.14C39.1658 130.832 39.0865 130.557 38.9278 130.314C38.7691 130.062 38.5405 129.861 38.2418 129.712C37.9431 129.563 37.5745 129.488 37.1358 129.488ZM43.9255 138V128.9L44.7235 129.726H41.8535V128.2H45.7455V138H43.9255ZM55.2127 138.14C54.4007 138.14 53.696 138.019 53.0987 137.776C52.5013 137.533 52.0393 137.193 51.7127 136.754C51.386 136.306 51.2227 135.783 51.2227 135.186C51.2227 134.589 51.3813 134.085 51.6987 133.674C52.016 133.263 52.4733 132.951 53.0707 132.736C53.668 132.521 54.382 132.414 55.2127 132.414C56.0433 132.414 56.7573 132.521 57.3547 132.736C57.9613 132.951 58.4233 133.268 58.7407 133.688C59.0673 134.099 59.2307 134.598 59.2307 135.186C59.2307 135.783 59.0627 136.306 58.7267 136.754C58.4 137.193 57.9333 137.533 57.3267 137.776C56.7293 138.019 56.0247 138.14 55.2127 138.14ZM55.2127 136.712C55.8847 136.712 56.4167 136.572 56.8087 136.292C57.2007 136.012 57.3967 135.625 57.3967 135.13C57.3967 134.645 57.2007 134.262 56.8087 133.982C56.4167 133.702 55.8847 133.562 55.2127 133.562C54.5407 133.562 54.0133 133.702 53.6307 133.982C53.248 134.262 53.0567 134.645 53.0567 135.13C53.0567 135.625 53.248 136.012 53.6307 136.292C54.0133 136.572 54.5407 136.712 55.2127 136.712ZM55.2127 133.366C54.4567 133.366 53.808 133.268 53.2667 133.072C52.7253 132.867 52.3053 132.573 52.0067 132.19C51.7173 131.798 51.5727 131.331 51.5727 130.79C51.5727 130.23 51.722 129.749 52.0207 129.348C52.3287 128.937 52.758 128.62 53.3087 128.396C53.8593 128.172 54.494 128.06 55.2127 128.06C55.9407 128.06 56.58 128.172 57.1307 128.396C57.6813 128.62 58.1107 128.937 58.4187 129.348C58.7267 129.749 58.8807 130.23 58.8807 130.79C58.8807 131.331 58.7313 131.798 58.4327 132.19C58.1433 132.573 57.7233 132.867 57.1727 133.072C56.622 133.268 55.9687 133.366 55.2127 133.366ZM55.2127 132.246C55.7913 132.246 56.2487 132.125 56.5847 131.882C56.9207 131.63 57.0887 131.294 57.0887 130.874C57.0887 130.435 56.916 130.095 56.5707 129.852C56.2253 129.609 55.7727 129.488 55.2127 129.488C54.6527 129.488 54.2047 129.609 53.8687 129.852C53.5327 130.095 53.3647 130.435 53.3647 130.874C53.3647 131.294 53.528 131.63 53.8547 131.882C54.1907 132.125 54.6433 132.246 55.2127 132.246ZM61.9095 138L65.9555 128.928L66.4315 129.74H60.8735L61.7415 128.858V131.406H60.0475V128.2H67.6635V129.418L63.8555 138H61.9095ZM70.287 138L74.333 128.928L74.809 129.74H69.251L70.119 128.858V131.406H68.425V128.2H76.041V129.418L72.233 138H70.287ZM78.6646 138L82.7106 128.928L83.1866 129.74H77.6286L78.4966 128.858V131.406H76.8026V128.2H84.4186V129.418L80.6106 138H78.6646ZM88.4061 138.14C87.7154 138.14 87.0388 138.042 86.3761 137.846C85.7228 137.641 85.1721 137.361 84.7241 137.006L85.4941 135.592C85.8488 135.881 86.2781 136.115 86.7821 136.292C87.2954 136.469 87.8274 136.558 88.3781 136.558C89.0221 136.558 89.5261 136.423 89.8901 136.152C90.2634 135.881 90.4501 135.517 90.4501 135.06C90.4501 134.752 90.3708 134.481 90.2121 134.248C90.0628 134.015 89.7921 133.837 89.4001 133.716C89.0174 133.595 88.4901 133.534 87.8181 133.534H85.4521L85.9561 128.2H91.7101V129.726H86.6281L87.5801 128.858L87.2021 132.848L86.2501 131.994H88.2241C89.1948 131.994 89.9741 132.125 90.5621 132.386C91.1594 132.638 91.5934 132.993 91.8641 133.45C92.1441 133.898 92.2841 134.411 92.2841 134.99C92.2841 135.559 92.1441 136.082 91.8641 136.558C91.5841 137.034 91.1548 137.417 90.5761 137.706C90.0068 137.995 89.2834 138.14 88.4061 138.14ZM96.4979 128.06C97.3939 128.06 98.1546 128.251 98.7799 128.634C99.4146 129.007 99.8999 129.553 100.236 130.272C100.572 130.991 100.74 131.877 100.74 132.932C100.74 134.052 100.535 134.999 100.124 135.774C99.7226 136.549 99.1626 137.137 98.4439 137.538C97.7252 137.939 96.8899 138.14 95.9379 138.14C95.4432 138.14 94.9719 138.089 94.5239 137.986C94.0759 137.883 93.6886 137.725 93.3619 137.51L94.0339 136.138C94.3046 136.315 94.5986 136.441 94.9159 136.516C95.2332 136.581 95.5599 136.614 95.8959 136.614C96.8199 136.614 97.5526 136.329 98.0939 135.76C98.6352 135.191 98.9059 134.351 98.9059 133.24C98.9059 133.063 98.9012 132.857 98.8919 132.624C98.8826 132.381 98.8499 132.139 98.7939 131.896L99.3539 132.512C99.1952 132.895 98.9666 133.217 98.6679 133.478C98.3692 133.73 98.0192 133.921 97.6179 134.052C97.2166 134.183 96.7732 134.248 96.2879 134.248C95.6532 134.248 95.0792 134.127 94.5659 133.884C94.0619 133.632 93.6606 133.282 93.3619 132.834C93.0632 132.377 92.9139 131.845 92.9139 131.238C92.9139 130.585 93.0726 130.025 93.3899 129.558C93.7072 129.082 94.1366 128.713 94.6779 128.452C95.2286 128.191 95.8352 128.06 96.4979 128.06ZM96.5959 129.488C96.2226 129.488 95.8912 129.558 95.6019 129.698C95.3126 129.829 95.0839 130.02 94.9159 130.272C94.7572 130.515 94.6779 130.809 94.6779 131.154C94.6779 131.667 94.8552 132.073 95.2099 132.372C95.5646 132.671 96.0406 132.82 96.6379 132.82C97.0299 132.82 97.3752 132.75 97.6739 132.61C97.9726 132.461 98.2059 132.26 98.3739 132.008C98.5419 131.747 98.6259 131.457 98.6259 131.14C98.6259 130.832 98.5466 130.557 98.3879 130.314C98.2292 130.062 98.0006 129.861 97.7019 129.712C97.4032 129.563 97.0346 129.488 96.5959 129.488ZM103.386 138V128.9L104.184 129.726H101.314V128.2H105.206V138H103.386ZM110.314 128.06C111.21 128.06 111.97 128.251 112.596 128.634C113.23 129.007 113.716 129.553 114.052 130.272C114.388 130.991 114.556 131.877 114.556 132.932C114.556 134.052 114.35 134.999 113.94 135.774C113.538 136.549 112.978 137.137 112.26 137.538C111.541 137.939 110.706 138.14 109.754 138.14C109.259 138.14 108.788 138.089 108.34 137.986C107.892 137.883 107.504 137.725 107.178 137.51L107.85 136.138C108.12 136.315 108.414 136.441 108.732 136.516C109.049 136.581 109.376 136.614 109.712 136.614C110.636 136.614 111.368 136.329 111.91 135.76C112.451 135.191 112.722 134.351 112.722 133.24C112.722 133.063 112.717 132.857 112.708 132.624C112.698 132.381 112.666 132.139 112.61 131.896L113.17 132.512C113.011 132.895 112.782 133.217 112.484 133.478C112.185 133.73 111.835 133.921 111.434 134.052C111.032 134.183 110.589 134.248 110.104 134.248C109.469 134.248 108.895 134.127 108.382 133.884C107.878 133.632 107.476 133.282 107.178 132.834C106.879 132.377 106.73 131.845 106.73 131.238C106.73 130.585 106.888 130.025 107.206 129.558C107.523 129.082 107.952 128.713 108.494 128.452C109.044 128.191 109.651 128.06 110.314 128.06ZM110.412 129.488C110.038 129.488 109.707 129.558 109.418 129.698C109.128 129.829 108.9 130.02 108.732 130.272C108.573 130.515 108.494 130.809 108.494 131.154C108.494 131.667 108.671 132.073 109.026 132.372C109.38 132.671 109.856 132.82 110.454 132.82C110.846 132.82 111.191 132.75 111.49 132.61C111.788 132.461 112.022 132.26 112.19 132.008C112.358 131.747 112.442 131.457 112.442 131.14C112.442 130.832 112.362 130.557 112.204 130.314C112.045 130.062 111.816 129.861 111.518 129.712C111.219 129.563 110.85 129.488 110.412 129.488ZM118.895 138.14C118.204 138.14 117.528 138.042 116.865 137.846C116.212 137.641 115.661 137.361 115.213 137.006L115.983 135.592C116.338 135.881 116.767 136.115 117.271 136.292C117.784 136.469 118.316 136.558 118.867 136.558C119.511 136.558 120.015 136.423 120.379 136.152C120.752 135.881 120.939 135.517 120.939 135.06C120.939 134.752 120.86 134.481 120.701 134.248C120.552 134.015 120.281 133.837 119.889 133.716C119.506 133.595 118.979 133.534 118.307 133.534H115.941L116.445 128.2H122.199V129.726H117.117L118.069 128.858L117.691 132.848L116.739 131.994H118.713C119.684 131.994 120.463 132.125 121.051 132.386C121.648 132.638 122.082 132.993 122.353 133.45C122.633 133.898 122.773 134.411 122.773 134.99C122.773 135.559 122.633 136.082 122.353 136.558C122.073 137.034 121.644 137.417 121.065 137.706C120.496 137.995 119.772 138.14 118.895 138.14ZM126.862 138.14C126.172 138.14 125.495 138.042 124.832 137.846C124.179 137.641 123.628 137.361 123.18 137.006L123.95 135.592C124.305 135.881 124.734 136.115 125.238 136.292C125.752 136.469 126.284 136.558 126.834 136.558C127.478 136.558 127.982 136.423 128.346 136.152C128.72 135.881 128.906 135.517 128.906 135.06C128.906 134.752 128.827 134.481 128.668 134.248C128.519 134.015 128.248 133.837 127.856 133.716C127.474 133.595 126.946 133.534 126.274 133.534H123.908L124.412 128.2H130.166V129.726H125.084L126.036 128.858L125.658 132.848L124.706 131.994H126.68C127.651 131.994 128.43 132.125 129.018 132.386C129.616 132.638 130.05 132.993 130.32 133.45C130.6 133.898 130.74 134.411 130.74 134.99C130.74 135.559 130.6 136.082 130.32 136.558C130.04 137.034 129.611 137.417 129.032 137.706C128.463 137.995 127.74 138.14 126.862 138.14Z" fill="#022387"/>
<path d="M73.3095 95.3005L88.1905 72.6995" stroke="#00175D" stroke-width="3"/>
<path d="M21.5 124H137" stroke="#00175D" stroke-opacity="0.16" stroke-width="0.5"/>
</svg>
